HIERARCHY
ROOT Hips
{
    OFFSET 0.000000 0.000000 0.000000
    CHANNELS 6 Xposition Yposition Zposition Zrotation Xrotation Yrotation
    JOINT Spine
    {
        OFFSET -0.000000 7.236184 0.000000
        CHANNELS 3 Zrotation Xrotation Yrotation
        JOINT Spine1
        {
            OFFSET -0.000000 20.420147 0.000000
            CHANNELS 3 Zrotation Xrotation Yrotation
            JOINT Neck
            {
                OFFSET -0.000000 20.336288 1.848754
                CHANNELS 3 Zrotation Xrotation Yrotation
                JOINT Head
                {
                    OFFSET -0.000000 12.354461 -1.764923
                    CHANNELS 3 Zrotation Xrotation Yrotation
                    End Site
                    {
                        OFFSET -0.000000 22.061537 0.000000
                    }
                }
            }
            JOINT LeftShoulder
            {
                OFFSET 3.573296 18.396038 -0.314103
                CHANNELS 3 Zrotation Xrotation Yrotation
                JOINT LeftArm
                {
                    OFFSET 10.880760 0.000000 0.000000
                    CHANNELS 3 Zrotation Xrotation Yrotation
                    JOINT LeftForeArm
                    {
                        OFFSET 27.185530 0.000000 0.000000
                        CHANNELS 3 Zrotation Xrotation Yrotation
                        JOINT LeftHand
                        {
                            OFFSET 27.825975 0.000000 0.000000
                            CHANNELS 3 Zrotation Xrotation Yrotation
                            End Site
                            {
                                OFFSET 13.236923 0.000000 0.000000
                            }
                        }
                    }
                }
            }
            JOINT RightShoulder
            {
                OFFSET -3.474926 18.396038 -0.314103
                CHANNELS 3 Zrotation Xrotation Yrotation
                JOINT RightArm
                {
                    OFFSET -10.880760 0.000000 0.000000
                    CHANNELS 3 Zrotation Xrotation Yrotation
                    JOINT RightForeArm
                    {
                        OFFSET -27.185530 0.000000 0.000000
                        CHANNELS 3 Zrotation Xrotation Yrotation
                        JOINT RightHand
                        {
                            OFFSET -27.825975 0.000000 0.000000
                            CHANNELS 3 Zrotation Xrotation Yrotation
                            End Site
                            {
                                OFFSET -13.236923 0.000000 0.000000
                            }
                        }
                    }
                }
            }
        }
    }
    JOINT LeftUpLeg
    {
        OFFSET 8.824615 0.000000 0.000000
        CHANNELS 3 Zrotation Xrotation Yrotation
        JOINT LeftLeg
        {
            OFFSET -0.000000 -35.111282 0.000000
            CHANNELS 3 Zrotation Xrotation Yrotation
            JOINT LeftFoot
            {
                OFFSET -0.000000 -42.324711 0.000000
                CHANNELS 3 Zrotation Xrotation Yrotation
                JOINT LeftToeBase
                {
                    OFFSET -0.000000 -5.735999 13.236923
                    CHANNELS 3 Zrotation Xrotation Yrotation
                    End Site
                    {
                        OFFSET -0.000000 0.000000 3.529846
                    }
                }
            }
        }
    }
    JOINT RightUpLeg
    {
        OFFSET -8.824615 0.000000 0.000000
        CHANNELS 3 Zrotation Xrotation Yrotation
        JOINT RightLeg
        {
            OFFSET -0.000000 -35.111282 0.000000
            CHANNELS 3 Zrotation Xrotation Yrotation
            JOINT RightFoot
            {
                OFFSET -0.000000 -42.324711 0.000000
                CHANNELS 3 Zrotation Xrotation Yrotation
                JOINT RightToeBase
                {
                    OFFSET -0.000000 -5.735999 13.236923
                    CHANNELS 3 Zrotation Xrotation Yrotation
                    End Site
                    {
                        OFFSET -0.000000 0.000000 3.529846
                    }
                }
            }
        }
    }
}
MOTION
Frames:    5
Frame Time:    0.008333
-3.950648    81.271538    100.019218    -1.126561    -8.547187    -175.921021    -3.061266    -13.679371    0.033050    1.321977    7.126958    0.317975    2.432200    7.329642    -2.369653    4.789419    -3.831394    -1.827058    -0.792669    20.138208    -1.076578    -52.175606    41.356827    -31.184505    21.216301    -14.677652    -60.010033    17.521702    -2.001082    2.575887    5.693228    18.895821    -5.600738    44.994495    43.747654    30.790506    -20.262682    -18.942429    62.438377    -14.686228    -6.229289    -4.624905    3.576721    -13.659050    0.042972    0.636783    19.378157    -5.144408    -6.240894    -11.628194    -8.638844    0.709675    -0.880020    -0.787905    -6.300411    -7.837662    -0.392262    2.492016    12.368905    4.852424    -1.798547    -8.814991    -12.348795    -2.372006    -0.543978    2.567369    
-3.954622    81.270149    100.021507    -1.128145    -8.549858    -175.925339    -3.041498    -13.675331    0.031602    1.313423    7.142186    0.314586    2.443171    7.252395    -2.357191    4.745145    -3.880863    -1.822509    -0.833094    20.133718    -1.058395    -52.090302    41.362492    -31.270920    21.134544    -14.654597    -59.810665    17.366745    -2.079177    2.583638    5.731113    18.933844    -5.590523    44.974243    43.783550    30.834492    -20.246689    -18.973587    62.266247    -14.748180    -6.329341    -4.488747    3.554817    -13.674104    -0.029649    0.639728    19.399698    -5.071479    -6.162604    -11.639532    -8.619817    0.710146    -0.818369    -0.788340    -6.306543    -7.864071    -0.464465    2.479324    12.411916    4.931195    -1.796716    -8.834482    -12.352839    -2.372622    -0.539031    2.568019    
-3.958492    81.268692    100.023674    -1.129674    -8.552438    -175.930161    -3.021966    -13.671495    0.030331    1.304559    7.156664    0.311064    2.453896    7.178001    -2.344699    4.703072    -3.929989    -1.817487    -0.872399    20.128994    -1.041282    -52.007168    41.367420    -31.353672    21.055302    -14.629888    -59.615002    17.221148    -2.152784    2.588758    5.768405    18.970528    -5.580402    44.953835    43.818497    30.878067    -20.231440    -19.003252    62.096882    -14.807943    -6.426488    -4.354378    3.533827    -13.688536    -0.099818    0.642279    19.420643    -5.000193    -6.089382    -11.650215    -8.602140    0.710322    -0.761417    -0.788453    -6.312434    -7.888015    -0.523482    2.469228    12.450008    4.998178    -1.796215    -8.851809    -12.358038    -2.373352    -0.534239    2.568793    
-3.962319    81.267021    100.025764    -1.130936    -8.555249    -175.936264    -3.001771    -13.668081    0.028837    1.294767    7.170455    0.307639    2.464691    7.105247    -2.331528    4.662833    -3.981424    -1.811361    -0.911683    20.123457    -1.025019    -51.923740    41.371498    -31.433872    20.976728    -14.600698    -59.417168    17.084692    -2.221784    2.590217    5.805903    19.006920    -5.570536    44.931797    43.853683    30.924225    -20.216597    -19.031542    61.924492    -14.867080    -6.523107    -4.216947    3.513778    -13.702873    -0.168455    0.644401    19.441559    -4.928122    -6.022533    -11.660164    -8.586883    0.709855    -0.710088    -0.787861    -6.317977    -7.914340    -0.598112    2.455483    12.492319    5.080062    -1.793421    -8.870931    -12.360616    -2.374090    -0.529916    2.569576    
-3.965867    81.265053    100.027702    -1.131472    -8.558814    -175.943710    -2.981207    -13.665747    0.027442    1.283907    7.182291    0.304125    2.475426    7.038145    -2.318056    4.626646    -4.033710    -1.804121    -0.948815    20.117085    -1.010901    -51.844299    41.374016    -31.506329    20.902180    -14.566908    -59.226170    16.964684    -2.281662    2.587311    5.842085    19.041109    -5.561237    44.909260    43.887341    30.971252    -20.202150    -19.056517    61.755997    -14.923798    -6.614887    -4.081357    3.496335    -13.717179    -0.231792    0.645698    19.461731    -4.858912    -5.967081    -11.668840    -8.574969    0.708579    -0.669015    -0.786386    -6.322403    -7.940727    -0.672314    2.441247    12.532970    5.162182    -1.791804    -8.889051    -12.362462    -2.375020    -0.525728    2.570568    
